<?xml version="1.0" encoding="utf-8"?>
<!-- Generator: Adobe Illustrator 24.1.2, SVG Export Plug-In . SVG Version: 6.00 Build 0)  -->
<svg version="1.1" id="Layer_1" xmlns="http://www.w3.org/2000/svg" xmlns:xlink="http://www.w3.org/1999/xlink" x="0px" y="0px"
	 viewBox="0 0 32 32" style="enable-background:new 0 0 32 32;" xml:space="preserve">
<style type="text/css">
	.st0{fill-rule:evenodd;clip-rule:evenodd;fill:#FF6666;}
</style>
<path class="st0" d="M16,32c8.8,0,16-7.2,16-16c0-8.8-7.2-16-16-16C7.2,0,0,7.2,0,16C0,24.8,7.2,32,16,32z M16,1.5
	C24,1.5,30.5,8,30.5,16c0,8-6.5,14.5-14.5,14.5C8,30.5,1.5,24,1.5,16C1.5,8,8,1.5,16,1.5z M22.5,26.5l-6.3-10.5l6.3-10.2L4.5,16.1
	L22.5,26.5z"/>
</svg>
