<?xml version="1.0" encoding="utf-8"?>
<!-- Generator: Adobe Illustrator 24.1.2, SVG Export Plug-In . SVG Version: 6.00 Build 0)  -->
<svg version="1.1" id="Layer_1" xmlns="http://www.w3.org/2000/svg" xmlns:xlink="http://www.w3.org/1999/xlink" x="0px" y="0px"
	 viewBox="0 0 47 32" style="enable-background:new 0 0 47 32;" xml:space="preserve">
<style type="text/css">
	.st0{fill:#7D7770;}
</style>
<path class="st0" d="M0,15.61c0,8.17,4.02,16.44,11.71,16.44H31.3c8.65,0,15.69-7.18,15.69-16c0-8.82-7.04-16-15.69-16H11.72
	C3.67,0.05,0,8.12,0,15.61z M2.96,15.61c0-6.25,2.71-12.55,8.76-12.55h7.37c4.12,10.98,1.02,22.62-0.05,25.98h-7.32
	C6.03,29.04,2.96,22.12,2.96,15.61z M44.04,16.05c0,7.16-5.71,12.99-12.74,12.99h-9.16c0.8-2.69,2.01-7.75,2.01-13.74
	c0-3.83-0.5-8.04-1.92-12.24h9.08C38.33,3.06,44.04,8.89,44.04,16.05z M17.09,17.37H6.38c-0.82,0-1.48-0.67-1.48-1.51
	c0-0.83,0.66-1.51,1.48-1.51h10.71c0.82,0,1.48,0.68,1.48,1.51C18.57,16.69,17.9,17.37,17.09,17.37z"/>
</svg>
