<?xml version="1.0" encoding="utf-8"?>
<!-- Generator: Adobe Illustrator 24.1.2, SVG Export Plug-In . SVG Version: 6.00 Build 0)  -->
<svg version="1.1" id="Layer_1" xmlns="http://www.w3.org/2000/svg" xmlns:xlink="http://www.w3.org/1999/xlink" x="0px" y="0px"
	 viewBox="0 0 17 20" style="enable-background:new 0 0 17 20;" xml:space="preserve">
<style type="text/css">
	.st0{fill:#FFFFFF;}
</style>
<g>
	<g>
		<path class="st0" d="M16.7,0.9c0.1-0.1,0.2-0.3,0.1-0.3c0,0,0,0,0,0s0-0.1,0-0.3s-0.1-0.2-0.2-0.2s-0.3,0.1-0.3,0.1l0,0
			c-0.1,0-0.2,0-0.3,0.2c0,0,0,0,0,0c0,0-0.4,0.1-0.9,0.2c-0.8,0.2-2.1,0.5-3.4,1.4C9.4,3.3,8,5.2,7.4,6.2C7.1,6.6,6.6,6.8,6.1,6.8
			c-3.8-0.1-5.4,2.5-5.9,3.8c-0.2,0.4,0.1,0.8,0.6,0.8c8.3-0.1,9,4.9,9,6.9c0,0.5,0.3,0.7,0.7,0.5c3-1.8,2.8-5.2,2.5-6.7
			c-0.1-0.4,0.1-1.1,0.4-1.4c1.2-1.4,2-2.8,2.5-4c0.2-0.4,0.4-1.1,0.5-1.5c0.1-0.2,0.1-0.5,0.2-0.7c0-0.1,0-0.1,0-0.2
			c0-0.1,0-0.2,0-0.2c0.1-0.8,0.2-1.6,0.1-2.1C16.7,1.3,16.7,1,16.7,0.9C16.7,0.9,16.7,0.9,16.7,0.9z M12.6,8.1
			c-0.1,0.1-0.1,0.2-0.2,0.3c-0.5,0.6-1.4,0.7-2.1,0.3C9.5,8.2,9.2,7.2,9.7,6.5c0.1-0.1,0.1-0.2,0.2-0.3c0.5-0.6,1.4-0.7,2.1-0.3
			C12.8,6.3,13,7.3,12.6,8.1z M7.4,15.6c-1.5,1-2.4,2.5-2.8,3.4c-0.2,0.4,0.1,0.7,0.5,0.4C6.6,18.6,7.5,17,7.9,16
			C8,15.6,7.8,15.4,7.4,15.6z M5.7,14.3c-2.4,1.4-3.5,3.8-4,5.1c-0.2,0.4,0.1,0.7,0.5,0.5c2.3-1.2,3.5-3.8,4-5.1
			C6.3,14.3,6.1,14.1,5.7,14.3z M4.4,13.4c0.2-0.4-0.1-0.6-0.5-0.4c-1.5,1-2.4,2.5-2.8,3.4c-0.2,0.4,0.1,0.7,0.5,0.4
			C3.1,15.9,4,14.3,4.4,13.4z"/>
	</g>
</g>
</svg>
