<?xml version="1.0" encoding="utf-8"?>
<!-- Generator: Adobe Illustrator 24.1.2, SVG Export Plug-In . SVG Version: 6.00 Build 0)  -->
<svg version="1.1" id="Layer_1" xmlns="http://www.w3.org/2000/svg" xmlns:xlink="http://www.w3.org/1999/xlink" x="0px" y="0px"
	 viewBox="0 0 24 21" style="enable-background:new 0 0 24 21;" xml:space="preserve">
<style type="text/css">
	.st0{fill:#FF6666;}
</style>
<g>
	<g>
		<path class="st0" d="M22.1,0H1.9C1.1,0,0.5,0.6,0.5,1.4v14.8c0,0.8,0.6,1.4,1.4,1.4h20.2c0.8,0,1.4-0.6,1.4-1.4V1.4
			C23.5,0.6,22.9,0,22.1,0z M21.8,15.1H2.2V2h19.5L21.8,15.1L21.8,15.1z M9.4,18.3L6.8,21h10.5l-2.6-2.7H9.4z M5.2,12.5
			c0.5,0,0.9-0.4,0.9-0.9c0-0.1,0-0.2-0.1-0.3c1.2-1,3.3-2.7,4.3-3.5C10.5,7.9,10.7,8,10.9,8c0.2,0,0.3-0.1,0.4-0.1
			c0.6,0.5,1.7,1.4,2.4,2.1c0,0.1,0,0.1,0,0.2c0,0.5,0.4,0.9,0.9,0.9s0.9-0.4,0.9-0.9c0-0.1,0-0.2-0.1-0.3L18,7.6
			c0.1,0.1,0.3,0.1,0.4,0.1c0.5,0,0.9-0.4,0.9-0.9c0-0.5-0.4-0.9-0.9-0.9s-0.9,0.4-0.9,0.9c0,0.1,0,0.2,0.1,0.3
			c-0.7,0.6-1.7,1.6-2.4,2.2c-0.1-0.1-0.3-0.2-0.5-0.2c-0.2,0-0.4,0.1-0.6,0.2c-0.6-0.5-1.6-1.4-2.3-2c0-0.1,0.1-0.2,0.1-0.3
			c0-0.5-0.4-0.9-0.9-0.9S10,6.5,10,7.1c0,0.1,0,0.2,0.1,0.3l-4.3,3.4c-0.2-0.1-0.3-0.2-0.5-0.2c-0.5,0-0.9,0.4-0.9,0.9
			C4.3,12.1,4.7,12.5,5.2,12.5z"/>
	</g>
</g>
</svg>
