<?xml version="1.0" encoding="utf-8"?>
<!-- Generator: Adobe Illustrator 24.1.2, SVG Export Plug-In . SVG Version: 6.00 Build 0)  -->
<svg version="1.1" id="Layer_1" xmlns="http://www.w3.org/2000/svg" xmlns:xlink="http://www.w3.org/1999/xlink" x="0px" y="0px"
	 viewBox="0 0 41 38" style="enable-background:new 0 0 41 38;" xml:space="preserve">
<style type="text/css">
	.st0{fill:#FF6666;}
</style>
<g>
	<g>
		<path class="st0" d="M25.8,36.9C25,36.4,25,35.7,25,35.7L24.7,34h-8.3l-0.3,1.7c0,0-0.1,0.8-0.8,1.3c-0.7,0.5-1.2,1-0.7,1
			c0.5,0.1,5.5,0,5.9,0c0.4,0,5.4,0.1,5.9,0C27,37.9,26.4,37.5,25.8,36.9z M14.4,20.9c-0.7,2.2-1,2.8-3.2,2.8s3.1,1.2,6.8-0.3
			C21.8,21.8,15.8,17.3,14.4,20.9z M18.5,19.6c1.1,0.9,0.8,0.9,1.9-0.5L33.9,4.6C35,3.2,35,1.3,34,0.5c-1.1-0.9-2.9-0.4-4,1
			L18.6,17.6C17.5,19,17.5,18.7,18.5,19.6z M32.8,0.6C31.2,1.6,31,2.4,31,2.4s-0.2-0.2-0.7-0.6C31.1,0.4,32.8,0.6,32.8,0.6z M39,5.9
			h-5l-2.2,2.4h6.4v19.3H2.9V8.3h20.5l1.7-2.4h-23c-0.9,0-1.6,0.7-1.6,1.6v23.3c0,0.9,0.7,1.6,1.6,1.6H39c0.9,0,1.6-0.7,1.6-1.6V7.5
			C40.6,6.6,39.9,5.9,39,5.9z"/>
	</g>
</g>
</svg>
