<?xml version="1.0" encoding="utf-8"?>
<!-- Generator: Adobe Illustrator 24.1.2, SVG Export Plug-In . SVG Version: 6.00 Build 0)  -->
<svg version="1.1" id="Layer_1" xmlns="http://www.w3.org/2000/svg" xmlns:xlink="http://www.w3.org/1999/xlink" x="0px" y="0px"
	 viewBox="0 0 37 37" style="enable-background:new 0 0 37 37;" xml:space="preserve">
<style type="text/css">
	.st0{fill:#FF6666;}
</style>
<g>
	<g>
		<path class="st0" d="M33.1,0H3.9C1.8,0,0,1.8,0,3.9v29.2C0,35.2,1.8,37,3.9,37h29.2c2.1,0,3.9-1.8,3.9-3.9V3.9
			C37,1.8,35.3,0,33.1,0z M4.2,5.3h28.6v19.5H4.2V5.3z M34.3,31.8H14.4c-0.4,1.5-1.7,2.6-3.2,2.6c-1.6,0-2.9-1.1-3.2-2.6H2.7v-1.5
			h5.2c0.4-1.5,1.7-2.6,3.2-2.6s2.9,1.1,3.2,2.6h19.9V31.8z M21.9,21.5h4V8.1h-4V21.5z M10.9,21.5h4v-8.2h-4V21.5z M16.4,21.5h4
			V11.1h-4V21.5z"/>
	</g>
</g>
</svg>
