<?xml version="1.0" encoding="utf-8"?>
<!-- Generator: Adobe Illustrator 24.1.2, SVG Export Plug-In . SVG Version: 6.00 Build 0)  -->
<svg version="1.1" id="Layer_1" xmlns="http://www.w3.org/2000/svg" xmlns:xlink="http://www.w3.org/1999/xlink" x="0px" y="0px"
	 viewBox="0 0 23 22" style="enable-background:new 0 0 23 22;" xml:space="preserve">
<style type="text/css">
	.st0{fill:#FFFFFF;}
</style>
<g>
	<g>
		<path class="st0" d="M23,8.6c-0.2-1.1-1.2-2-2.3-2h-5.2c-0.2,0-0.3-0.1-0.2-0.3c0.5-0.8,0.8-1.9,0.7-3.7c-0.1-1.5-0.5-2.1-0.9-2.1
			c-0.7,0-1.8,1.6-2.9,3.1c-1.4,2-4.1,3.7-5.1,4.2C7,8,6.7,8.1,6.5,8.2l-2.7,1C3.5,9.3,3.4,9.5,3.4,9.8V18c0,0.2,0.2,0.5,0.3,0.6
			l1.2,0.7c0.2,0.1,0.5,0.2,0.8,0.2c1.2,0.1,2,0.6,2.7,1C8.6,20.7,8.9,21,9,21.1c0.4,0.3,0.8,0.4,1.3,0.4h8.2c1.2,0,2.4-0.9,2.6-2
			c0-0.2,0.1-0.6,0.1-0.8l1.7-9.2C23,9.2,23,8.8,23,8.6z M2.2,8.4H0.7C0.3,8.4,0,8.7,0,9.1v9.7c0,0.4,0.3,0.7,0.7,0.7h1.5
			c0.4,0,0.7-0.3,0.7-0.7V9.1C2.8,8.7,2.5,8.4,2.2,8.4z"/>
	</g>
</g>
</svg>
