<?xml version="1.0" encoding="utf-8"?>
<!-- Generator: Adobe Illustrator 24.1.2, SVG Export Plug-In . SVG Version: 6.00 Build 0)  -->
<svg version="1.1" id="Layer_1" xmlns="http://www.w3.org/2000/svg" xmlns:xlink="http://www.w3.org/1999/xlink" x="0px" y="0px"
	 viewBox="0 0 34 40" style="enable-background:new 0 0 34 40;" xml:space="preserve">
<style type="text/css">
	.st0{fill:#FFFFFF;}
</style>
<g>
	<g>
		<path class="st0" d="M33.3,2c0.2-0.3,0.3-0.5,0.2-0.6c0,0,0,0-0.1,0c0,0,0-0.3,0-0.5c0.1-0.3-0.1-0.4-0.4-0.3
			c-0.3,0.1-0.6,0.1-0.6,0.1l-0.1-0.1C32.2,0.5,32,0.7,31.7,1c0,0,0,0.1-0.1,0.1c0,0-0.8,0.1-1.7,0.3c-1.6,0.3-4.1,1-6.8,2.7
			c-4.4,2.7-7.2,6.4-8.5,8.4c-0.5,0.8-1.6,1.3-2.5,1.3c-7.4-0.3-10.6,4.9-11.7,7.5c-0.4,0.8,0.2,1.5,1.1,1.5
			c16.3-0.3,17.8,9.7,17.8,13.7c0,0.9,0.6,1.3,1.4,0.9c5.9-3.5,5.5-10.2,5-13.2c-0.2-0.9,0.1-2.1,0.7-2.8c2.4-2.8,4-5.5,5-8
			c0.4-0.8,0.8-2.2,1-3c0.1-0.4,0.2-0.9,0.3-1.5c0-0.1,0-0.2,0.1-0.4c0-0.1,0-0.3,0.1-0.5c0.3-1.7,0.3-3.1,0.3-4.2
			c0-0.9-0.1-1.7-0.1-1.7C33.2,2.1,33.3,2.1,33.3,2z M25.1,16.3c-0.1,0.2-0.2,0.4-0.4,0.5c-1,1.1-2.7,1.4-4.1,0.6
			c-1.6-0.9-2.1-2.8-1.2-4.3c0.1-0.2,0.2-0.4,0.4-0.5c1-1.1,2.7-1.4,4.1-0.6C25.4,12.8,26,14.8,25.1,16.3z M14.8,31.1
			c-3.1,1.9-4.7,4.9-5.5,6.7c-0.4,0.8,0.2,1.3,1,0.8c2.9-1.7,4.6-4.9,5.4-6.8C16.1,31,15.6,30.6,14.8,31.1z M11.4,28.5
			c-4.7,2.8-7,7.5-7.9,10c-0.3,0.8,0.2,1.3,1,0.9c4.5-2.4,6.9-7.5,7.8-10.1C12.7,28.4,12.2,28,11.4,28.5z M8.9,26.6
			c0.4-0.8-0.1-1.3-0.9-0.8c-3.1,1.9-4.7,4.9-5.5,6.8c-0.3,0.8,0.2,1.3,1,0.8C6.4,31.7,8.1,28.5,8.9,26.6z"/>
	</g>
</g>
</svg>
