<?xml version="1.0" encoding="utf-8"?>
<!-- Generator: Adobe Illustrator 24.1.2, SVG Export Plug-In . SVG Version: 6.00 Build 0)  -->
<svg version="1.1" id="Layer_1" xmlns="http://www.w3.org/2000/svg" xmlns:xlink="http://www.w3.org/1999/xlink" x="0px" y="0px"
	 viewBox="0 0 1000 1000" style="enable-background:new 0 0 1000 1000;" xml:space="preserve">
<style type="text/css">
	.st0{fill:#FF6666;}
</style>
<g>
	<path class="st0" d="M500,10c13.5,0,25.1,4.8,34.7,14.4C544.2,33.9,549,45.5,549,59v763.7l259.2-259.6c9.4-9.4,21-14.1,34.8-14.1
		c14,0,25.7,4.7,35,14s14,21,14,35c0,13.8-4.7,25.4-14.2,34.8l-343,343c-9.4,9.4-21,14.1-34.8,14.1s-25.4-4.7-34.8-14.1l-343-343
		c-9.4-9.4-14.1-21-14.1-34.8c0-14,4.7-25.7,14-35s21-14,35-14c13.8,0,25.4,4.7,34.8,14.1L451,822.7V59c0-13.5,4.8-25.1,14.4-34.7
		C475,14.8,486.5,10,500,10L500,10z"/>
</g>
</svg>
