<?xml version="1.0" encoding="utf-8"?>
<!-- Generator: Adobe Illustrator 24.1.2, SVG Export Plug-In . SVG Version: 6.00 Build 0)  -->
<svg version="1.1" id="Layer_1" xmlns="http://www.w3.org/2000/svg" xmlns:xlink="http://www.w3.org/1999/xlink" x="0px" y="0px"
	 viewBox="0 0 22 26" style="enable-background:new 0 0 22 26;" xml:space="preserve">
<style type="text/css">
	.st0{fill:#FF6666;}
</style>
<g>
	<g>
		<path class="st0" d="M8.1,5.9c-1.1,0-2,0.9-2,2s0.9,2,2,2s2-0.9,2-2S9.2,5.9,8.1,5.9z M12.5,14.2c-0.7,0-1.3,0.6-1.3,1.3
			c0,0.7,0.6,1.3,1.3,1.3s1.3-0.6,1.3-1.3C13.8,14.8,13.2,14.2,12.5,14.2z M19.7,11.3c1.6-8-4.9-11.7-12.2-10.6
			c-7.3,1.2-7,5.5-7.4,7.6c-0.9,5.2,4.6,11.1,4.6,11.1l-0.3,6.1h8.8l0.7-2.8c0,0,0.4,0.6,2.7,0.8s2-2.6,2-2.6s1.5-0.7,1.5-1.2
			s-0.9-1.1-0.9-1.1s1,0.2,1.3-0.2c0.4-0.4-0.4-1.9-0.4-1.9s1.2,0,1.9-0.8C22.6,15,19.7,12.7,19.7,11.3z M7.1,12.4
			c0,0-0.1-0.5-0.1-0.8c-0.2-0.1-0.4-0.1-0.6-0.2C6.2,11.6,5.7,12,5.7,12H5.6l-0.8-0.1l-1.3-1.6V9.4c0,0,0.5-0.4,0.8-0.6
			C4.1,8.6,4.1,8.4,4.1,8.2c-0.3-0.1-1-0.5-1-0.5L2.8,6.9V6.8L3.7,5l0.9-0.2c0,0,0.6,0.3,0.8,0.4C5.6,5,5.8,4.9,6,4.8
			c0-0.3-0.1-1-0.1-1l0.7-0.7l2-0.2l0.7,0.6c0,0,0,0.5,0.1,0.8c0.3,0.1,0.5,0.2,0.8,0.3C10.4,4.4,10.9,4,10.9,4h0.9L13,5.6v0.9
			c0,0-0.5,0.5-0.8,0.7c0,0.2,0.1,0.4,0.1,0.6c0.3,0.2,1,0.6,1,0.6l0.2,0.9l-1,1.8l-0.9,0.2c0,0-0.5-0.3-0.8-0.4
			c-0.1,0.1-0.3,0.2-0.5,0.3c0,0.4,0.1,1.1,0.1,1.1l-0.6,0.6l-2,0.2L7.1,12.4z M15.3,17.5l-0.6,0.1c0,0-0.3-0.2-0.5-0.3
			c-0.1,0.1-0.2,0.1-0.3,0.2c0,0.2,0.1,0.7,0.1,0.7l-0.4,0.4l-1.3,0.1l-0.4-0.4c0,0,0-0.4-0.1-0.5c-0.1,0-0.3-0.1-0.4-0.1
			c-0.1,0.1-0.5,0.4-0.5,0.4h-0.1h-0.5l-0.8-1v-0.6c0,0,0.3-0.3,0.5-0.4c0-0.1-0.1-0.3-0.1-0.4c-0.2-0.1-0.6-0.3-0.6-0.3l-0.2-0.5
			v-0.1l0.5-1.2l0.6-0.1c0,0,0.4,0.2,0.6,0.3c0.1-0.1,0.2-0.2,0.4-0.2c0-0.2-0.1-0.7-0.1-0.7l0.4-0.4l1.3-0.1l0.4,0.4
			c0,0,0,0.3,0,0.5c0.2,0.1,0.3,0.1,0.5,0.2c0.1-0.1,0.4-0.4,0.4-0.4h0.6l0.9,1v0.6c0,0-0.3,0.3-0.5,0.4c0,0.1,0,0.2,0,0.4
			c0.2,0.1,0.6,0.4,0.6,0.4l0.1,0.6L15.3,17.5z"/>
	</g>
</g>
</svg>
