<?xml version="1.0" encoding="utf-8"?>
<!-- Generator: Adobe Illustrator 24.1.2, SVG Export Plug-In . SVG Version: 6.00 Build 0)  -->
<svg version="1.1" id="Layer_1" xmlns="http://www.w3.org/2000/svg" xmlns:xlink="http://www.w3.org/1999/xlink" x="0px" y="0px"
	 viewBox="0 0 24 21" style="enable-background:new 0 0 24 21;" xml:space="preserve">
<style type="text/css">
	.st0{fill:#FFFFFF;}
</style>
<g>
	<g>
		<path class="st0" d="M22.11,0H1.89c-0.77,0-1.4,0.64-1.4,1.42v14.75c0,0.78,0.63,1.42,1.4,1.42h20.22c0.77,0,1.4-0.64,1.4-1.42
			V1.42C23.51,0.64,22.88,0,22.11,0z M21.76,15.13H2.24V2h19.51V15.13z M9.41,18.27L6.76,21h10.52l-2.65-2.73H9.41z M5.22,12.49
			c0.52,0,0.94-0.43,0.94-0.95c0-0.1-0.03-0.18-0.05-0.27c1.2-0.98,3.31-2.71,4.28-3.46C10.54,7.92,10.72,8,10.92,8
			c0.17,0,0.32-0.06,0.45-0.13c0.62,0.54,1.68,1.45,2.42,2.09c-0.01,0.05-0.03,0.1-0.03,0.16c0,0.53,0.42,0.95,0.94,0.95
			c0.52,0,0.94-0.43,0.94-0.95c0-0.09-0.03-0.18-0.05-0.26l2.42-2.22c0.13,0.07,0.27,0.12,0.43,0.12c0.52,0,0.94-0.43,0.94-0.95
			c0-0.53-0.42-0.95-0.94-0.95c-0.52,0-0.94,0.43-0.94,0.95c0,0.13,0.03,0.24,0.07,0.35c-0.68,0.62-1.72,1.58-2.37,2.18
			c-0.15-0.1-0.31-0.16-0.5-0.16c-0.22,0-0.41,0.09-0.57,0.22c-0.62-0.53-1.62-1.4-2.33-2.01c0.04-0.1,0.06-0.21,0.06-0.33
			c0-0.53-0.42-0.95-0.94-0.95S9.98,6.52,9.98,7.05c0,0.12,0.03,0.22,0.07,0.33l-4.3,3.4c-0.15-0.1-0.32-0.18-0.52-0.18
			c-0.52,0-0.94,0.43-0.94,0.95C4.29,12.07,4.71,12.49,5.22,12.49z"/>
	</g>
</g>
</svg>
