<?xml version="1.0" encoding="utf-8"?>
<!-- Generator: Adobe Illustrator 24.1.2, SVG Export Plug-In . SVG Version: 6.00 Build 0)  -->
<svg version="1.1" id="Layer_1" xmlns="http://www.w3.org/2000/svg" xmlns:xlink="http://www.w3.org/1999/xlink" x="0px" y="0px"
	 viewBox="0 0 38 38" style="enable-background:new 0 0 38 38;" xml:space="preserve">
<style type="text/css">
	.st0{fill:#FFFFFF;}
</style>
<g>
	<g>
		<path class="st0" d="M11.2,9.6L6,9.7c0,0-4.1,0.2-4.1,4.2V14c-0.9,0.6-1.4,1.6-1.4,2.7s0.6,2.1,1.4,2.7c0,0.5,0.2,4.5,4,4.5
			c0,0,1.6,0.1,1.4,2.6v9.9c0,0-0.3,1.6,1.3,1.6c0,0,4.7-0.7,2.3-5.4c1.7-1.8-0.8-2.9,0.2-5.8c0,0,1.3-1.9,1.3-2.9l0.1-12.7
			C12.7,11.2,12.9,9.6,11.2,9.6z M37.5,16.2c0-1.7-1-3.2-2.4-4V0.6c0-1.5-1.3,0.2-1.3,0.2c-6,9.4-18.5,8.7-18.5,8.7
			c-1.5,0-1.2,1.3-1.2,1.3v10.9c0,1.3,1.3,1.3,1.3,1.3c14,0,18.8,8.8,18.8,8.8s1.1,1.4,1-0.1V20.1C36.5,19.4,37.5,17.9,37.5,16.2z
			 M21.3,10.7c0,0,8.2-1.1,12.2-7.3C33.5,3.3,32,10.6,21.3,10.7z M36.6,17.5c0,0,0.4-2-1.2-4.3C35.5,13.2,37.6,14.4,36.6,17.5z"/>
	</g>
</g>
</svg>
